<?xml version="1.0" encoding="utf-8"?>
<!-- Generator: Adobe Illustrator 24.0.2, SVG Export Plug-In . SVG Version: 6.00 Build 0)  -->
<svg version="1.1" id="Layer_1" xmlns="http://www.w3.org/2000/svg" xmlns:xlink="http://www.w3.org/1999/xlink" x="0px" y="0px"
	 viewBox="0 0 1631.9 955.5" style="enable-background:new 0 0 1631.9 955.5;" xml:space="preserve">
<style type="text/css">
	.st0{enable-background:new    ;}
	.st1{fill:#FFFFFF;}
	.st2{fill:url(#SVGID_1_);}
	.st3{fill:#FFFFFF;stroke:#FFFFFF;stroke-width:2;stroke-miterlimit:10;}
	.st4{fill:url(#SVGID_2_);}
</style>
<g id="Layer_1_1_">
	<g class="st0">
		<path class="st1" d="M364.6,853.7c0-18.4,13.7-32.5,32.5-32.5c11.4,0,21.4,5.6,26.8,14.5l-12.3,7.2c-2.8-4.8-8.1-7.7-14.5-7.7
			c-11.1,0-18.2,7.4-18.2,18.6c0,11.2,7.2,18.6,18.2,18.6c6.3,0,11.8-2.9,14.5-7.7l12.3,7.2c-5.4,8.9-15.4,14.5-26.8,14.5
			C378.2,886.3,364.6,872.2,364.6,853.7z"/>
		<path class="st1" d="M467.3,871.3V885h-36.7v-62.6h14.3v48.8H467.3z"/>
		<path class="st1" d="M512,875.2h-23.2l-3.1,9.8H470l21.3-62.6h18.2l21.3,62.6h-15.6L512,875.2z M507.7,861.8l-7.3-23l-7.3,23
			H507.7z"/>
		<path class="st1" d="M550.4,822.4V885h-14.3v-62.6H550.4z"/>
		<path class="st1" d="M623.7,885h-14.3v-36.4l-16.2,26.6h-1.6l-16.2-26.6V885h-14.3v-62.6h14.3l17,27.8l17-27.8h14.3V885z"/>
		<path class="st1" d="M686.8,861v24h-14.3v-24l-21-38.5h16.3l11.9,24.1l11.9-24.1h16.3L686.8,861z"/>
		<path class="st1" d="M706,853.7c0-18.4,14.6-32.5,32.5-32.5s32.5,14.1,32.5,32.5c0,18.4-14.6,32.5-32.5,32.5S706,872.2,706,853.7z
			 M756.8,853.7c0-11.2-8-18.6-18.2-18.6s-18.2,7.4-18.2,18.6c0,11.2,8,18.6,18.2,18.6S756.8,864.9,756.8,853.7z"/>
		<path class="st1" d="M778.2,864.8v-42.4h14.3v41.1c0,4.7,2.2,8.8,9.8,8.8s9.8-4,9.8-8.8v-41.1h14.3v42.4
			c0,13.4-10.4,21.5-24.1,21.5C788.6,886.3,778.2,878.2,778.2,864.8z"/>
		<path class="st1" d="M857.9,864.5h-6.8V885h-14.3v-62.6h25c11.9,0,21.5,9.6,21.5,21.5c0,7.7-4.6,14.7-11.5,18.1l13.3,23h-15.4
			L857.9,864.5z M851.1,851.9h10.7c3.9,0,7.2-3.5,7.2-8c0-4.6-3.2-8-7.2-8h-10.7V851.9z"/>
		<path class="st1" d="M956.2,836.2h-16.1V885h-14.3v-48.8h-16.1v-13.8h46.5V836.2z"/>
		<path class="st1" d="M1010.7,822.4V885h-14.3v-24.9h-19.7V885h-14.3v-62.6h14.3v24h19.7v-24H1010.7z"/>
		<path class="st1" d="M1042.5,864.5h-6.8V885h-14.3v-62.6h25c11.9,0,21.5,9.6,21.5,21.5c0,7.7-4.6,14.7-11.5,18.1l13.3,23h-15.4
			L1042.5,864.5z M1035.7,851.9h10.7c3.9,0,7.2-3.5,7.2-8c0-4.6-3.2-8-7.2-8h-10.7V851.9z"/>
		<path class="st1" d="M1072.8,853.7c0-18.4,14.6-32.5,32.5-32.5c18,0,32.5,14.1,32.5,32.5c0,18.4-14.6,32.5-32.5,32.5
			C1087.4,886.3,1072.8,872.2,1072.8,853.7z M1123.6,853.7c0-11.2-8-18.6-18.2-18.6c-10.2,0-18.2,7.4-18.2,18.6
			c0,11.2,8,18.6,18.2,18.6C1115.6,872.3,1123.6,864.9,1123.6,853.7z"/>
		<path class="st1" d="M1195.1,822.4V885h-10.7l-24.1-34v34H1146v-62.6h10.7l24.1,34v-34H1195.1z"/>
		<path class="st1" d="M1245.2,871.3V885h-39.3v-62.6h38.9v13.8h-24.6v10.4h22.4v13.6h-22.4v11.1H1245.2z"/>
	</g>
	<g>
		
			<linearGradient id="SVGID_1_" gradientUnits="userSpaceOnUse" x1="738.925" y1="841.2" x2="892.8751" y2="841.2" gradientTransform="matrix(1 0 0 -1 0 956)">
			<stop  offset="4.168009e-03" style="stop-color:#00ABE4"/>
			<stop  offset="0.336" style="stop-color:#5E968B"/>
			<stop  offset="0.6345" style="stop-color:#AB8541"/>
			<stop  offset="0.8455" style="stop-color:#DB7A13"/>
			<stop  offset="0.95" style="stop-color:#EE7601"/>
		</linearGradient>
		<path class="st2" d="M879.2,183.3H752.7c-5,0-9.4-2.6-11.9-6.9s-2.5-9.4,0-13.8L804,53.2c2.5-4.3,6.9-6.9,11.9-6.9l0,0
			c5,0,9.4,2.6,11.9,6.9L891,162.7c2.5,4.3,2.5,9.4,0,13.8C888.6,180.8,884.2,183.3,879.2,183.3z M816,56.6c-0.6,0-2.1,0.2-3,1.8
			l-63.2,109.5c-0.9,1.6-0.3,3,0,3.5s1.2,1.8,3,1.8h126.5c1.8,0,2.7-1.2,3-1.8c0.3-0.5,0.9-1.9,0-3.5L819,58.3
			C818.1,56.7,816.6,56.6,816,56.6L816,56.6z"/>
	</g>
	<g>
		<g>
			<path class="st3" d="M499.7,405.9L450,334v71.9h-35.5V250.6H450V318l47.5-67.4h40.4l-52.3,75.6l54.6,79.6L499.7,405.9
				L499.7,405.9z"/>
		</g>
		<g>
			<path class="st3" d="M589.7,250.6v155.3h-35.5V250.6H589.7z"/>
		</g>
		<g>
			<path class="st3" d="M739.2,250.6v155.3h-26.6l-59.9-84.3v84.3h-35.5V250.6h26.6l59.9,84.3v-84.3L739.2,250.6L739.2,250.6z"/>
		</g>
		<g>
			<path class="st3" d="M920.4,332.7c0,47.5-33,76.3-76.5,76.3c-48.8,0-83.8-35.9-83.8-80.5c0-45,35.7-81,81.4-81
				c29.7,0,54.8,14.6,67.9,35.5l-30.2,17.3c-6.4-10.2-20.4-18.2-37.9-18.2c-26.2,0-45.7,19.3-45.7,46.6c0,26.4,18.6,45.7,48.8,45.7
				c20.6,0,34.2-9.1,39.7-24h-41.5v-31.1h77.9v13.4H920.4z"/>
		</g>
		<g>
			<path class="st3" d="M928,370.6l30.6-17.7c5.5,12.9,15.1,21.5,32.6,21.5c16.9,0,21.1-6.7,21.1-12.6c0-9.5-8.9-13.3-32.2-19.7
				c-23.1-6.4-45.7-17.5-45.7-47.2c0-29.9,25.3-47.2,52.1-47.2c25.5,0,45.5,12.2,56.8,35l-29.9,17.5c-5.3-11.1-12.6-18-26.8-18
				c-11.1,0-16.6,5.5-16.6,11.8c0,7.1,3.8,12,27.9,19.3c23.5,7.1,49.9,15.3,49.9,48.1c0,29.9-24,47.7-57.7,47.7
				C957.5,409,936.6,393.5,928,370.6z"/>
		</g>
		<g>
			<path class="st3" d="M1113.5,326.7c0-33.1,26.2-58.5,58.5-58.5s58.5,25.4,58.5,58.5s-26.2,58.5-58.5,58.5
				C1139.7,385.3,1113.5,359.9,1113.5,326.7z M1204.8,326.7c0-20.1-14.5-33.5-32.8-33.5s-32.8,13.3-32.8,33.5s14.5,33.5,32.8,33.5
				S1204.8,346.9,1204.8,326.7z"/>
		</g>
		<g>
			<path class="st3" d="M1268.6,295.2v21.7h41.8v24.8h-41.8V383h-25.7V270.5h68.4v24.8L1268.6,295.2L1268.6,295.2z"/>
		</g>
	</g>
	<g>
		<g>
			<path class="st3" d="M374.1,659.4h-96.6l-13,40.9h-65L288,440.1h75.8l88.5,260.2h-65L374.1,659.4z M356.3,603.7l-30.5-95.5
				l-30.5,95.5H356.3z"/>
		</g>
		<g>
			<path class="st3" d="M709.1,570.2c0,73.6-54.6,130.1-126.4,130.1h-104V440.1h104.1C654.5,440.1,709.1,496.6,709.1,570.2z
				 M651.9,570.2c0-44.6-28.2-72.8-69.1-72.8h-44.6v145.7h44.6C623.6,643.1,651.9,614.8,651.9,570.2z"/>
		</g>
		<g>
			<path class="st3" d="M716.2,440.1h65l57.6,191.4l57.6-191.4h65l-84.7,260.2h-75.8L716.2,440.1z"/>
		</g>
		<g>
			<path class="st3" d="M1050.3,440.1v260.2h-59.5V440.1H1050.3z"/>
		</g>
		<g>
			<path class="st3" d="M1332.5,570.2c0,73.6-54.6,130.1-126.4,130.1H1102V440.1h104.1C1277.8,440.1,1332.5,496.6,1332.5,570.2z
				 M1275.2,570.2c0-44.6-28.2-72.8-69.1-72.8h-44.6v145.7h44.6C1247,643.1,1275.2,614.8,1275.2,570.2z"/>
		</g>
		<g>
			<path class="st3" d="M1432.5,440.1v260.2H1373V440.1H1432.5z"/>
		</g>
	</g>
	<g>
		
			<linearGradient id="SVGID_2_" gradientUnits="userSpaceOnUse" x1="232.8" y1="192.5" x2="1402.7" y2="192.5" gradientTransform="matrix(1 0 0 -1 0 956)">
			<stop  offset="4.168009e-03" style="stop-color:#00ABE4"/>
			<stop  offset="0.336" style="stop-color:#5E968B"/>
			<stop  offset="0.6345" style="stop-color:#AB8541"/>
			<stop  offset="0.8455" style="stop-color:#DB7A13"/>
			<stop  offset="0.95" style="stop-color:#EE7601"/>
		</linearGradient>
		<path class="st4" d="M1399,766.7H236.5c-2,0-3.7-1.5-3.7-3.2l0,0c0-1.8,1.7-3.2,3.7-3.2H1399c2,0,3.7,1.5,3.7,3.2l0,0
			C1402.7,765.2,1401.1,766.7,1399,766.7z"/>
	</g>
</g>
<g id="Layer_2_1_">
</g>
</svg>
